<svg width="31" height="24" viewBox="0 0 31 24" fill="none" xmlns="http://www.w3.org/2000/svg">
<g clip-path="url(#clip0_234_9148)">
<path d="M26.26 2.00165C24.227 1.05428 22.0762 0.381129 19.8645 0C19.589 0.49604 19.2672 1.16322 19.0452 1.69399C16.6606 1.33688 14.298 1.33688 11.9572 1.69399C11.7354 1.16334 11.4062 0.49604 11.1282 0C8.91437 0.381305 6.76177 1.05617 4.7278 2.00659C0.680367 8.09813 -0.416864 14.0382 0.131691 19.8942C2.81622 21.8908 5.4178 23.1037 7.97554 23.8974C8.6112 23.0268 9.17311 22.105 9.65547 21.1417C8.73713 20.7935 7.85181 20.3644 7.01006 19.8595C7.23157 19.6959 7.44787 19.5255 7.65864 19.3485C12.7593 21.7246 18.3016 21.7246 23.3415 19.3485C23.5532 19.5243 23.7694 19.6947 23.9899 19.8595C23.1468 20.3657 22.2599 20.7957 21.3397 21.1442C21.8248 22.1115 22.3857 23.0341 23.0196 23.8998C25.5798 23.1062 28.1838 21.8933 30.8683 19.8942C31.512 13.1057 29.7688 7.22002 26.26 2.00153V2.00165ZM10.3504 16.2929C8.8192 16.2929 7.56346 14.8691 7.56346 13.1355C7.56346 11.4018 8.79244 9.97568 10.3504 9.97568C11.9085 9.97568 13.1642 11.3993 13.1374 13.1355C13.1398 14.8691 11.9085 16.2929 10.3504 16.2929ZM20.6496 16.2929C19.1183 16.2929 17.8627 14.8691 17.8627 13.1355C17.8627 11.4018 19.0916 9.97568 20.6496 9.97568C22.2077 9.97568 23.4633 11.3993 23.4365 13.1355C23.4365 14.8691 22.2077 16.2929 20.6496 16.2929Z" fill="#5865F2"/>
</g>
<defs>
<clipPath id="clip0_234_9148">
<rect width="31" height="24" fill="white"/>
</clipPath>
</defs>
</svg>
