<svg width="26" height="27" viewBox="0 0 26 27" fill="none" xmlns="http://www.w3.org/2000/svg">
<path d="M25 13.5C25 20.4395 19.5922 26 13 26C6.40782 26 1 20.4395 1 13.5C1 6.56053 6.40782 1 13 1C19.5922 1 25 6.56053 25 13.5Z" stroke="#24C115" stroke-width="2"/>
<path d="M16.6523 6.86457L19.1967 9.44489C19.6286 9.88127 19.591 10.6212 19.2248 11.0007L11.7043 18.6088L6.48412 19.7093L7.57323 14.4158C7.57323 14.4158 14.7088 7.17762 15.0749 6.79817C15.4411 6.42819 16.2204 6.42819 16.6523 6.86457ZM14.0891 9.5113L8.84073 14.8332L9.88289 15.8862L15.0843 10.5264L14.0891 9.5113ZM11.3006 17.3187L16.5396 12.0062L15.535 10.9817L10.2866 16.2941L11.3006 17.3187Z" fill="#24C115"/>
</svg>
