<svg width="55" height="18" viewBox="0 0 55 18" fill="none" xmlns="http://www.w3.org/2000/svg">
<path d="M28.4447 5.73138C28.4133 8.22883 30.6496 9.62242 32.3342 10.4511C34.065 11.3012 34.6463 11.8464 34.6395 12.6067C34.6266 13.7702 33.2589 14.2838 31.9791 14.3037C29.7462 14.3386 28.4479 13.6952 27.4158 13.2085L26.6114 17.0078C27.647 17.4895 29.5644 17.9096 31.5528 17.928C36.2203 17.928 39.2739 15.6023 39.2904 11.9965C39.3087 7.42013 33.0196 7.16683 33.0625 5.12133C33.0773 4.50109 33.6637 3.83922 34.9484 3.67093C35.5844 3.58591 37.3398 3.52085 39.3302 4.44601L40.1113 0.770107C39.041 0.376709 37.6653 9.53674e-06 35.9526 9.53674e-06C31.5595 9.53674e-06 28.4696 2.35736 28.4447 5.73138ZM47.6175 0.316637C46.7653 0.316637 46.047 0.818466 45.7265 1.58856L39.0592 17.658H43.7233L44.6514 15.0688H50.3508L50.8892 17.658H55L51.4128 0.316637H47.6175ZM48.27 5.00119L49.616 11.5131H45.9297L48.27 5.00119ZM22.7898 0.316853L19.1134 17.6578H23.5578L27.2325 0.31642H22.7898V0.316853ZM16.2149 0.31642L11.5889 12.1199L9.7176 2.08389C9.49803 0.963552 8.63092 0.316637 7.66799 0.316637H0.105918L0 0.820202C1.55246 1.16025 3.31633 1.70871 4.38496 2.29555C5.03895 2.65403 5.22543 2.96741 5.44027 3.81926L8.98455 17.658H13.6812L20.882 0.316637H16.2149" fill="url(#paint0_linear_131_1017)"/>
<defs>
<linearGradient id="paint0_linear_131_1017" x1="25.2857" y1="18.2876" x2="25.8095" y2="-0.124397" gradientUnits="userSpaceOnUse">
<stop stop-color="#222357"/>
<stop offset="1" stop-color="#254AA5"/>
</linearGradient>
</defs>
</svg>
