<svg width="18" height="18" viewBox="0 0 18 18" fill="none" xmlns="http://www.w3.org/2000/svg">
<path d="M17.25 1.125V4.875C17.25 5.17337 17.1315 5.45952 16.9205 5.6705C16.7095 5.88147 16.4234 6 16.125 6C15.8266 6 15.5405 5.88147 15.3295 5.6705C15.1185 5.45952 15 5.17337 15 4.875V3.84375L11.6719 7.17188C11.4596 7.38142 11.1733 7.49891 10.875 7.49891C10.5767 7.49891 10.2904 7.38142 10.0781 7.17188C9.97324 7.06736 9.89003 6.94317 9.83325 6.80642C9.77647 6.66967 9.74724 6.52307 9.74724 6.375C9.74724 6.22693 9.77647 6.08033 9.83325 5.94358C9.89003 5.80683 9.97324 5.68264 10.0781 5.57812L13.4062 2.25H12.375C12.0766 2.25 11.7905 2.13147 11.5795 1.9205C11.3685 1.70952 11.25 1.42337 11.25 1.125C11.25 0.826631 11.3685 0.540483 11.5795 0.329505C11.7905 0.118526 12.0766 0 12.375 0H16.125C16.4234 0 16.7095 0.118526 16.9205 0.329505C17.1315 0.540483 17.25 0.826631 17.25 1.125ZM5.57812 10.0781L2.25 13.4062V12.375C2.25 12.0766 2.13147 11.7905 1.9205 11.5795C1.70952 11.3685 1.42337 11.25 1.125 11.25C0.826631 11.25 0.540483 11.3685 0.329505 11.5795C0.118526 11.7905 0 12.0766 0 12.375V16.125C0 16.4234 0.118526 16.7095 0.329505 16.9205C0.540483 17.1315 0.826631 17.25 1.125 17.25H4.875C5.17337 17.25 5.45952 17.1315 5.6705 16.9205C5.88147 16.7095 6 16.4234 6 16.125C6 15.8266 5.88147 15.5405 5.6705 15.3295C5.45952 15.1185 5.17337 15 4.875 15H3.84375L7.17188 11.6719C7.38322 11.4605 7.50195 11.1739 7.50195 10.875C7.50195 10.5761 7.38322 10.2895 7.17188 10.0781C6.96053 9.86678 6.67389 9.74805 6.375 9.74805C6.07611 9.74805 5.78947 9.86678 5.57812 10.0781ZM16.125 11.25C15.8266 11.25 15.5405 11.3685 15.3295 11.5795C15.1185 11.7905 15 12.0766 15 12.375V13.4062L11.6719 10.0781C11.4605 9.86678 11.1739 9.74805 10.875 9.74805C10.5761 9.74805 10.2895 9.86678 10.0781 10.0781C9.86678 10.2895 9.74805 10.5761 9.74805 10.875C9.74805 11.1739 9.86678 11.4605 10.0781 11.6719L13.4062 15H12.375C12.0766 15 11.7905 15.1185 11.5795 15.3295C11.3685 15.5405 11.25 15.8266 11.25 16.125C11.25 16.4234 11.3685 16.7095 11.5795 16.9205C11.7905 17.1315 12.0766 17.25 12.375 17.25H16.125C16.4234 17.25 16.7095 17.1315 16.9205 16.9205C17.1315 16.7095 17.25 16.4234 17.25 16.125V12.375C17.25 12.0766 17.1315 11.7905 16.9205 11.5795C16.7095 11.3685 16.4234 11.25 16.125 11.25ZM3.84375 2.25H4.875C5.17337 2.25 5.45952 2.13147 5.6705 1.9205C5.88147 1.70952 6 1.42337 6 1.125C6 0.826631 5.88147 0.540483 5.6705 0.329505C5.45952 0.118526 5.17337 0 4.875 0H1.125C0.826631 0 0.540483 0.118526 0.329505 0.329505C0.118526 0.540483 0 0.826631 0 1.125V4.875C0 5.17337 0.118526 5.45952 0.329505 5.6705C0.540483 5.88147 0.826631 6 1.125 6C1.42337 6 1.70952 5.88147 1.9205 5.6705C2.13147 5.45952 2.25 5.17337 2.25 4.875V3.84375L5.57812 7.17188C5.79042 7.38142 6.07671 7.49891 6.375 7.49891C6.67329 7.49891 6.95958 7.38142 7.17188 7.17188C7.27675 7.06736 7.35997 6.94317 7.41675 6.80642C7.47353 6.66967 7.50276 6.52307 7.50276 6.375C7.50276 6.22693 7.47353 6.08033 7.41675 5.94358C7.35997 5.80683 7.27675 5.68264 7.17188 5.57812L3.84375 2.25Z" fill="#03D4E7"/>
</svg>
