<svg width="18" height="18" viewBox="0 0 18 18" fill="none" xmlns="http://www.w3.org/2000/svg">
<path d="M9.75276 6.37695V2.62695C9.75276 2.32858 9.87129 2.04243 10.0823 1.83146C10.2932 1.62048 10.5794 1.50195 10.8778 1.50195C11.1761 1.50195 11.4623 1.62048 11.6733 1.83146C11.8842 2.04243 12.0028 2.32858 12.0028 2.62695V3.6582L15.3309 0.330076C15.5422 0.118732 15.8289 -6.29855e-09 16.1278 0C16.4266 6.29855e-09 16.7133 0.118732 16.9246 0.330076C17.136 0.541421 17.2547 0.828065 17.2547 1.12695C17.2547 1.42584 17.136 1.71248 16.9246 1.92383L13.5965 5.25195H14.6278C14.9261 5.25195 15.2123 5.37048 15.4233 5.58145C15.6342 5.79243 15.7528 6.07858 15.7528 6.37695C15.7528 6.67532 15.6342 6.96147 15.4233 7.17245C15.2123 7.38342 14.9261 7.50195 14.6278 7.50195H10.8778C10.5794 7.50195 10.2932 7.38342 10.0823 7.17245C9.87129 6.96147 9.75276 6.67532 9.75276 6.37695ZM6.37776 9.75195H2.62776C2.32939 9.75195 2.04325 9.87048 1.83227 10.0815C1.62129 10.2924 1.50276 10.5786 1.50276 10.8769C1.50276 11.1753 1.62129 11.4615 1.83227 11.6724C2.04325 11.8834 2.32939 12.0019 2.62776 12.0019H3.65901L0.330887 15.3301C0.226007 15.4346 0.142791 15.5588 0.0860099 15.6955C0.0292288 15.8323 0 15.9789 0 16.1269C0 16.275 0.0292288 16.4216 0.0860099 16.5584C0.142791 16.6951 0.226007 16.8193 0.330887 16.9238C0.543183 17.1334 0.829471 17.2509 1.12776 17.2509C1.42605 17.2509 1.71234 17.1334 1.92464 16.9238L5.25276 13.5957V14.6269C5.25276 14.9253 5.37129 15.2115 5.58227 15.4224C5.79324 15.6334 6.07939 15.7519 6.37776 15.7519C6.67613 15.7519 6.96228 15.6334 7.17326 15.4224C7.38424 15.2115 7.50276 14.9253 7.50276 14.6269V10.8769C7.50276 10.5786 7.38424 10.2924 7.17326 10.0815C6.96228 9.87048 6.67613 9.75195 6.37776 9.75195ZM13.5965 12.0019H14.6278C14.9261 12.0019 15.2123 11.8834 15.4233 11.6724C15.6342 11.4615 15.7528 11.1753 15.7528 10.8769C15.7528 10.5786 15.6342 10.2924 15.4233 10.0815C15.2123 9.87048 14.9261 9.75195 14.6278 9.75195H10.8778C10.5794 9.75195 10.2932 9.87048 10.0823 10.0815C9.87129 10.2924 9.75276 10.5786 9.75276 10.8769V14.6269C9.75276 14.9253 9.87129 15.2115 10.0823 15.4224C10.2932 15.6334 10.5794 15.7519 10.8778 15.7519C11.1761 15.7519 11.4623 15.6334 11.6733 15.4224C11.8842 15.2115 12.0028 14.9253 12.0028 14.6269V13.5957L15.3309 16.9238C15.5432 17.1334 15.8295 17.2509 16.1278 17.2509C16.4261 17.2509 16.7123 17.1334 16.9246 16.9238C17.0295 16.8193 17.1127 16.6951 17.1695 16.5584C17.2263 16.4216 17.2555 16.275 17.2555 16.1269C17.2555 15.9789 17.2263 15.8323 17.1695 15.6955C17.1127 15.5588 17.0295 15.4346 16.9246 15.3301L13.5965 12.0019ZM6.37776 1.50195C6.07939 1.50195 5.79324 1.62048 5.58227 1.83146C5.37129 2.04243 5.25276 2.32858 5.25276 2.62695V3.6582L1.92464 0.330076C1.81999 0.225429 1.69576 0.142419 1.55903 0.0857842C1.4223 0.0291496 1.27576 0 1.12776 0C0.979769 0 0.833225 0.0291496 0.696497 0.0857842C0.559769 0.142419 0.435534 0.225429 0.330887 0.330076C0.119543 0.541421 0.000810742 0.828065 0.000810742 1.12695C0.000810742 1.42584 0.119543 1.71248 0.330887 1.92383L3.65901 5.25195H2.62776C2.32939 5.25195 2.04325 5.37048 1.83227 5.58145C1.62129 5.79243 1.50276 6.07858 1.50276 6.37695C1.50276 6.67532 1.62129 6.96147 1.83227 7.17245C2.04325 7.38342 2.32939 7.50195 2.62776 7.50195H6.37776C6.67613 7.50195 6.96228 7.38342 7.17326 7.17245C7.38424 6.96147 7.50276 6.67532 7.50276 6.37695V2.62695C7.50276 2.32858 7.38424 2.04243 7.17326 1.83146C6.96228 1.62048 6.67613 1.50195 6.37776 1.50195Z" fill="#03D4E7"/>
</svg>
