<svg width="21" height="21" viewBox="0 0 21 21" fill="none" xmlns="http://www.w3.org/2000/svg">
<path d="M10.5 4.5C9.75832 4.5 9.0333 4.71993 8.41661 5.13199C7.79993 5.54404 7.31928 6.12971 7.03545 6.81494C6.75162 7.50016 6.67736 8.25416 6.82206 8.98159C6.96675 9.70902 7.3239 10.3772 7.84835 10.9017C8.3728 11.4261 9.04098 11.7833 9.76841 11.9279C10.4958 12.0726 11.2498 11.9984 11.9351 11.7145C12.6203 11.4307 13.206 10.9501 13.618 10.3334C14.0301 9.7167 14.25 8.99168 14.25 8.25C14.25 7.25544 13.8549 6.30161 13.1517 5.59835C12.4484 4.89509 11.4946 4.5 10.5 4.5Z" fill="#03D4E7"/>
<path d="M10.5 0C8.4233 0 6.39323 0.615814 4.66652 1.76957C2.9398 2.92332 1.59399 4.5632 0.79927 6.48182C0.00454947 8.40045 -0.203386 10.5116 0.201759 12.5484C0.606904 14.5852 1.60693 16.4562 3.07538 17.9246C4.54383 19.3931 6.41476 20.3931 8.45156 20.7982C10.4884 21.2034 12.5996 20.9955 14.5182 20.2007C16.4368 19.406 18.0767 18.0602 19.2304 16.3335C20.3842 14.6068 21 12.5767 21 10.5C20.9968 7.7162 19.8896 5.04733 17.9211 3.07889C15.9527 1.11044 13.2838 0.00317604 10.5 0ZM16.494 17.1945C16.4791 16.2107 16.0782 15.2722 15.3779 14.5812C14.6776 13.8901 13.7339 13.5019 12.75 13.5H8.25C7.26614 13.5019 6.32238 13.8901 5.62207 14.5812C4.92176 15.2722 4.52095 16.2107 4.506 17.1945C3.14593 15.9801 2.1868 14.3812 1.75563 12.6095C1.32446 10.8378 1.44158 8.97701 2.09148 7.27339C2.74139 5.56978 3.89342 4.10375 5.39503 3.06942C6.89665 2.0351 8.67701 1.48127 10.5004 1.48127C12.3237 1.48127 14.1041 2.0351 15.6057 3.06942C17.1073 4.10375 18.2594 5.56978 18.9093 7.27339C19.5592 8.97701 19.6763 10.8378 19.2451 12.6095C18.814 14.3812 17.8548 15.9801 16.4948 17.1945H16.494Z" fill="#03D4E7"/>
</svg>
