<svg width="23" height="23" viewBox="0 0 23 23" fill="none" xmlns="http://www.w3.org/2000/svg">
<path d="M11.5 1.4375C14.1687 1.4375 16.7282 2.49765 18.6153 4.38474C20.5023 6.27182 21.5625 8.83126 21.5625 11.5C21.5625 14.1687 20.5023 16.7282 18.6153 18.6153C16.7282 20.5023 14.1687 21.5625 11.5 21.5625C8.83126 21.5625 6.27182 20.5023 4.38474 18.6153C2.49765 16.7282 1.4375 14.1687 1.4375 11.5C1.4375 8.83126 2.49765 6.27182 4.38474 4.38474C6.27182 2.49765 8.83126 1.4375 11.5 1.4375ZM11.5 20.125C13.7875 20.125 15.9813 19.2163 17.5988 17.5988C19.2163 15.9813 20.125 13.7875 20.125 11.5C20.125 9.21251 19.2163 7.01871 17.5988 5.4012C15.9813 3.7837 13.7875 2.875 11.5 2.875C9.21251 2.875 7.01871 3.7837 5.4012 5.4012C3.7837 7.01871 2.875 9.21251 2.875 11.5C2.875 13.7875 3.7837 15.9813 5.4012 17.5988C7.01871 19.2163 9.21251 20.125 11.5 20.125ZM12.5781 16.1719C12.5781 16.4578 12.4645 16.732 12.2623 16.9342C12.0602 17.1364 11.7859 17.25 11.5 17.25C11.2141 17.25 10.9398 17.1364 10.7376 16.9342C10.5355 16.732 10.4219 16.4578 10.4219 16.1719C10.4219 15.8859 10.5355 15.6117 10.7376 15.4095C10.9398 15.2073 11.2141 15.0938 11.5 15.0938C11.7859 15.0938 12.0602 15.2073 12.2623 15.4095C12.4645 15.6117 12.5781 15.8859 12.5781 16.1719ZM11.5 5.75C11.6906 5.75 11.8734 5.82573 12.0082 5.96052C12.143 6.09531 12.2188 6.27813 12.2188 6.46875V12.9375C12.2188 13.1281 12.143 13.3109 12.0082 13.4457C11.8734 13.5805 11.6906 13.6562 11.5 13.6562C11.3094 13.6562 11.1266 13.5805 10.9918 13.4457C10.857 13.3109 10.7812 13.1281 10.7812 12.9375V6.46875C10.7812 6.27813 10.857 6.09531 10.9918 5.96052C11.1266 5.82573 11.3094 5.75 11.5 5.75Z" fill="#03D4E7"/>
</svg>
