<svg width="26" height="18" viewBox="0 0 26 18" fill="none" xmlns="http://www.w3.org/2000/svg">
<g clip-path="url(#clip0_62_2700)">
<path d="M25.4257 2.8075C25.2766 2.26486 24.9857 1.77014 24.582 1.37263C24.1782 0.975112 23.6758 0.688661 23.1247 0.5418C21.1071 0 12.9867 0 12.9867 0C12.9867 0 4.86599 0.0164 2.84835 0.5582C2.29722 0.70507 1.79478 0.991536 1.39107 1.38907C0.987364 1.78661 0.696466 2.28134 0.54735 2.824C-0.0629392 6.3538 -0.299682 11.7324 0.564108 15.121C0.713239 15.6636 1.00414 16.1584 1.40785 16.5559C1.81156 16.9534 2.31399 17.2398 2.86511 17.3867C4.88275 17.9285 13.0033 17.9285 13.0033 17.9285C13.0033 17.9285 21.1237 17.9285 23.1413 17.3867C23.6924 17.2399 24.1948 16.9534 24.5986 16.5559C25.0023 16.1584 25.2932 15.6637 25.4424 15.121C26.0861 11.5862 26.2844 6.211 25.4257 2.8076V2.8075Z" fill="#FF0000"/>
<path d="M10.4021 12.806L17.1386 8.96421L10.4021 5.12241V12.806Z" fill="white"/>
</g>
<defs>
<clipPath id="clip0_62_2700">
<rect width="26" height="18" fill="white"/>
</clipPath>
</defs>
</svg>
