<svg width="30" height="30" viewBox="0 0 30 30" fill="none" xmlns="http://www.w3.org/2000/svg">
<circle opacity="0.5" cx="15" cy="15" r="15" fill="#01828E"/>
<path d="M18.3625 21.6125C18.4784 21.4969 18.5703 21.3595 18.633 21.2083C18.6958 21.0571 18.7281 20.895 18.7281 20.7313C18.7281 20.5675 18.6958 20.4054 18.633 20.2542C18.5703 20.103 18.4784 19.9656 18.3625 19.85L13.5125 15L18.3625 10.15C18.5962 9.91628 18.7275 9.59929 18.7275 9.26876C18.7275 8.93822 18.5962 8.62123 18.3625 8.3875C18.1288 8.15378 17.8118 8.02248 17.4813 8.02248C17.1507 8.02248 16.8337 8.15378 16.6 8.3875L10.8625 14.125C10.7466 14.2406 10.6547 14.378 10.592 14.5292C10.5292 14.6804 10.4969 14.8425 10.4969 15.0063C10.4969 15.17 10.5292 15.3321 10.592 15.4833C10.6547 15.6345 10.7466 15.7719 10.8625 15.8875L16.6 21.625C17.075 22.1 17.875 22.1 18.3625 21.6125Z" fill="white"/>
</svg>
