<svg width="21" height="25" viewBox="0 0 21 25" fill="none" xmlns="http://www.w3.org/2000/svg">
<path d="M17.8146 1.94593C16.6715 0.631194 14.6053 0.0675354 11.962 0.0675354H4.29048C4.02896 0.0675452 3.77601 0.161703 3.57712 0.333079C3.37823 0.504456 3.24644 0.74181 3.20546 1.00247L0.0111579 21.4467C-0.0523343 21.8499 0.257006 22.215 0.661912 22.215H5.39807L6.58752 14.6015L6.55061 14.8399C6.63535 14.3017 7.09144 13.9048 7.63154 13.9048H9.88215C14.3035 13.9048 17.7654 12.0925 18.7767 6.85007C18.8067 6.69502 18.8327 6.54411 18.8552 6.39667C18.7276 6.32846 18.7276 6.32846 18.8552 6.39667C19.1564 4.45901 18.8532 3.14005 17.8146 1.94593Z" fill="#27346A"/>
<path d="M8.39976 5.69866C8.52924 5.63644 8.67085 5.6042 8.81426 5.60429H14.8286C15.5408 5.60429 16.2051 5.65106 16.8121 5.74965C16.982 5.77698 17.151 5.80961 17.3189 5.8475C17.5568 5.90048 17.7919 5.96532 18.0235 6.04179C18.3219 6.14237 18.5999 6.2595 18.8553 6.39667C19.1564 4.45826 18.8532 3.14005 17.8146 1.94593C16.6709 0.631194 14.6053 0.0675354 11.962 0.0675354H4.28983C3.74965 0.0675354 3.29011 0.46439 3.20546 1.00247L0.0111584 21.446C-0.0523338 21.8498 0.257006 22.2144 0.661256 22.2144H5.39807L7.86582 6.42217C7.89008 6.26694 7.95135 6.11999 8.04436 5.99396C8.13737 5.86793 8.25934 5.76659 8.39976 5.69866Z" fill="#27346A"/>
<path d="M18.7767 6.85009C17.7654 12.0918 14.3036 13.9048 9.88215 13.9048H7.63088C7.09079 13.9048 6.63461 14.3017 6.55069 14.8399L5.07093 24.3064C5.01564 24.6592 5.28602 24.9789 5.63974 24.9789H9.6322C9.8609 24.9788 10.0821 24.8964 10.2559 24.7465C10.4298 24.5966 10.545 24.389 10.5807 24.161L10.6196 23.9557L11.3721 19.1431L11.4206 18.8772C11.4563 18.6492 11.5715 18.4416 11.7453 18.2917C11.9192 18.1418 12.1403 18.0594 12.369 18.0593H12.9665C16.8341 18.0593 19.8624 16.4737 20.7474 11.8879C21.1167 9.97153 20.9256 8.37153 19.9485 7.24769C19.6521 6.90729 19.284 6.62617 18.8552 6.3967C18.832 6.54488 18.8068 6.69504 18.7767 6.85009Z" fill="#2790C3"/>
<path d="M17.7968 5.97086C17.6391 5.92439 17.48 5.88326 17.3196 5.84751C17.1516 5.81025 16.9827 5.77784 16.8129 5.75033C16.2052 5.65107 15.5414 5.60422 14.8285 5.60422H8.81491C8.67139 5.60389 8.52967 5.63641 8.4004 5.69934C8.25982 5.76706 8.13772 5.86834 8.04467 5.9944C7.95162 6.12047 7.89042 6.26753 7.86638 6.42285L6.58817 14.6015L6.55125 14.8399C6.63534 14.3017 7.09143 13.9048 7.63161 13.9048H9.88287C14.3042 13.9048 17.7661 12.0925 18.7773 6.85008C18.8075 6.69503 18.8327 6.54478 18.8559 6.39669C18.5998 6.26026 18.3226 6.14238 18.0241 6.04246C17.9488 6.01727 17.8731 5.99339 17.7969 5.97086" fill="#1F264F"/>
</svg>
