<svg width="28" height="28" viewBox="0 0 28 28" fill="none" xmlns="http://www.w3.org/2000/svg">
<path d="M28 14C28 17.713 26.525 21.274 23.8995 23.8995C21.274 26.525 17.713 28 14 28C10.287 28 6.72601 26.525 4.10051 23.8995C1.475 21.274 0 17.713 0 14C0 10.287 1.475 6.72601 4.10051 4.10051C6.72601 1.475 10.287 0 14 0C17.713 0 21.274 1.475 23.8995 4.10051C26.525 6.72601 28 10.287 28 14ZM11.8825 8.91275C11.7517 8.8196 11.5977 8.76425 11.4375 8.75278C11.2773 8.7413 11.117 8.77414 10.9743 8.8477C10.8315 8.92126 10.7117 9.03269 10.6281 9.1698C10.5444 9.3069 10.5001 9.46439 10.5 9.625V18.375C10.5001 18.5356 10.5444 18.6931 10.6281 18.8302C10.7117 18.9673 10.8315 19.0787 10.9743 19.1523C11.117 19.2259 11.2773 19.2587 11.4375 19.2472C11.5977 19.2358 11.7517 19.1804 11.8825 19.0872L18.0075 14.7122C18.1209 14.6313 18.2134 14.5244 18.2772 14.4006C18.341 14.2767 18.3742 14.1393 18.3742 14C18.3742 13.8607 18.341 13.7233 18.2772 13.5994C18.2134 13.4756 18.1209 13.3687 18.0075 13.2878L11.8825 8.91275Z" fill="#0E3915"/>
<g clip-path="url(#clip0_100_485)" filter="url(#filter0_i_100_485)">
<path d="M26.5106 14.1489C26.5106 17.5065 25.1769 20.7265 22.8027 23.1006C20.4286 25.4747 17.2086 26.8085 13.8511 26.8085C10.4935 26.8085 7.27352 25.4747 4.89939 23.1006C2.52526 20.7265 1.19149 17.5065 1.19149 14.1489C1.19149 10.7914 2.52526 7.57138 4.89939 5.19725C7.27352 2.82312 10.4935 1.48935 13.8511 1.48935C17.2086 1.48935 20.4286 2.82312 22.8027 5.19725C25.1769 7.57138 26.5106 10.7914 26.5106 14.1489ZM11.9363 9.54875C11.818 9.46452 11.6788 9.41447 11.5339 9.40409C11.3891 9.39372 11.2441 9.42341 11.115 9.48993C10.9859 9.55644 10.8776 9.65721 10.802 9.78119C10.7263 9.90517 10.6863 10.0476 10.6862 10.1928V18.105C10.6863 18.2503 10.7263 18.3927 10.802 18.5167C10.8776 18.6406 10.9859 18.7414 11.115 18.8079C11.2441 18.8744 11.3891 18.9041 11.5339 18.8938C11.6788 18.8834 11.818 18.8333 11.9363 18.7491L17.4749 14.793C17.5774 14.7198 17.661 14.6232 17.7187 14.5111C17.7764 14.3991 17.8065 14.2749 17.8065 14.1489C17.8065 14.0229 17.7764 13.8987 17.7187 13.7867C17.661 13.6747 17.5774 13.5781 17.4749 13.5049L11.9363 9.54875Z" fill="#24C115"/>
</g>
<defs>
<filter id="filter0_i_100_485" x="1.19149" y="1.48935" width="25.3191" height="29.3192" filterUnits="userSpaceOnUse" color-interpolation-filters="sRGB">
<feFlood flood-opacity="0" result="BackgroundImageFix"/>
<feBlend mode="normal" in="SourceGraphic" in2="BackgroundImageFix" result="shape"/>
<feColorMatrix in="SourceAlpha" type="matrix" values="0 0 0 0 0 0 0 0 0 0 0 0 0 0 0 0 0 0 127 0" result="hardAlpha"/>
<feOffset dy="4"/>
<feGaussianBlur stdDeviation="2"/>
<feComposite in2="hardAlpha" operator="arithmetic" k2="-1" k3="1"/>
<feColorMatrix type="matrix" values="0 0 0 0 0 0 0 0 0 0 0 0 0 0 0 0 0 0 0.25 0"/>
<feBlend mode="normal" in2="shape" result="effect1_innerShadow_100_485"/>
</filter>
<clipPath id="clip0_100_485">
<rect width="25.3191" height="25.3191" fill="white" transform="translate(1.19149 1.48935)"/>
</clipPath>
</defs>
</svg>
